<svg width="40" height="40" xmlns="http://www.w3.org/2000/svg" viewBox="0 0 99.013 122.5">
	<path d="M767.44 599.51c35 0 45 10 48.325 30.107 3.32 20.107 1.675 39.893-48.325 39.893s-50-20-45-40 10-30 45-30"
		style="fill-rule:evenodd;stroke:#1e4a85;stroke-miterlimit:10;stroke-width:2.5;fill:#2e5e99"
		transform="translate(-719.06 -548.25)" />
	<path d="M757.44 599.51h25l-15 55z"
		style="fill-rule:evenodd;stroke:#1e4a85;stroke-miterlimit:10;stroke-width:2.5;fill:#fff"
		transform="translate(-719.06 -548.25)" />
	<path d="m752.44 594.51 10 10-5 5zm25 10 10-10-5 15z"
		style="fill-rule:evenodd;stroke:#1e4a85;stroke-miterlimit:10;stroke-width:2.5;fill:#6161ff"
		transform="translate(-719.06 -548.25)" />
	<path d="M742.44 629.51a54.564 54.564 0 0 0-7.5 30m65 0a60.015 60.015 0 0 0-5-30"
		style="stroke:#1e4a85;stroke-miterlimit:10;stroke-width:1.25;fill:none"
		transform="translate(-719.06 -548.25)" />
	<path
		d="M797.44 577.01c0 15.186-12.314 27.5-27.5 27.5-15.19 0-27.5-12.314-27.5-27.5 0-15.19 12.31-27.5 27.5-27.5 15.186 0 27.5 12.31 27.5 27.5"
		style="fill-rule:evenodd;stroke:#ffb068;stroke-miterlimit:10;stroke-width:2.5;fill:#ffd9b5"
		transform="translate(-719.06 -548.25)" />
</svg>