<?xml version="1.0" encoding="utf-8"?>
<!-- Generator: Adobe Illustrator 26.0.1, SVG Export Plug-In . SVG Version: 6.00 Build 0)  -->
<svg version="1.1" id="Слой_1" xmlns="http://www.w3.org/2000/svg" xmlns:xlink="http://www.w3.org/1999/xlink" x="0px" y="0px"
	 width="600px" height="400px" viewBox="0 0 600 400" style="enable-background:new 0 0 600 400;" xml:space="preserve">
<style type="text/css">
	.st0{fill:#2D2514;}
	.st1{fill:none;stroke:#2C2516;stroke-width:5;stroke-miterlimit:10;}
	.st2{fill:#2C2516;}
	.st3{fill:#E5231E;}
</style>
<g transform="translate(0.000000,245.000000) scale(0.100000,-0.100000)">
	<path class="st0" d="M1026.675,750.086C904.431,694.785,867.563,533.733,951,423.131l22.314-30.076l-30.076-56.271
		c-16.493-30.076-37.838-89.258-49.48-130.006c-16.493-64.033-18.434-92.168-12.612-205.681
		c4.851-111.572,2.911-133.887-9.702-144.559c-7.762-6.791-29.106-40.748-46.569-76.645
		c-46.569-93.139-114.483-217.323-125.155-230.906c-6.791-8.732-6.791-12.613,0-12.613c5.821,0,12.613,3.881,16.493,8.732
		c2.911,4.851,29.106,14.553,59.182,21.344c66.943,14.553,171.724,0.97,301.73-40.748
		c209.562-66.943,277.475-111.572,392.928-257.101c46.569-60.152,99.93-117.393,116.423-129.036
		c22.314-13.583,27.165-20.374,17.464-23.285c-117.393-35.897-177.545-83.437-227.025-181.426
		c-41.718-84.407-58.212-180.456-51.42-301.73l4.851-93.139l-119.334-5.821c-188.218-8.732-344.419,22.314-505.471,99.93
		c-112.542,54.331-183.367,113.513-217.323,180.456c-19.404,39.778-23.285,61.122-22.314,130.006
		c0.97,97.99,20.374,160.082,97.019,313.372c117.393,234.787,118.364,288.147,0.97,66.943
		c-48.51-92.168-109.632-253.22-124.185-329.866c-17.463-86.347-8.732-189.188,21.344-251.28
		c31.046-63.062,108.662-153.291,144.559-168.814c15.523-5.821,28.136-14.553,28.136-18.434c0-3.881-75.675-9.702-166.873-13.583
		c-162.022-6.791-326.955-20.374-375.465-31.046c-68.884-15.523,60.152-35.897,333.746-52.391
		c202.77-12.612,1546.488-12.612,1746.348,0c159.112,9.702,318.223,26.195,344.419,34.927
		c49.48,17.464-103.811,36.867-380.316,48.51c-84.407,3.881-153.291,9.702-153.291,14.553c0,3.881,15.523,21.344,34.927,39.778
		c119.334,110.602,129.036,335.687,19.404,432.706c-41.718,35.897-76.645,55.301-119.334,65.003
		c-17.464,2.911-32.016,7.762-32.016,8.732c0,0.97,8.732,18.434,19.404,39.778s19.404,51.42,19.404,67.914
		c-0.97,39.778-39.778,130.976-76.645,177.545c-16.493,21.344-30.076,40.748-30.076,43.659s13.583,7.762,29.106,11.642
		c32.987,6.791,135.827,106.721,135.827,130.976c0,7.762-4.851,31.046-9.702,50.45c-11.642,40.748,0,71.794,73.735,192.098
		c61.122,98.96,83.437,166.873,88.288,271.654c3.881,79.556,1.94,100.9-16.493,150.38c-15.523,42.689-22.314,82.466-23.285,145.529
		c-1.94,104.781-13.583,130.976-72.764,169.784c-38.808,26.195-51.42,29.106-110.602,28.136c-54.331-1.94-68.884,1.94-87.317,18.434
		c-11.642,10.672-45.599,31.046-74.705,44.629c-121.274,55.301-233.817,67.914-385.167,43.659l-74.705-11.642l-24.255,29.106
		c-13.583,16.493-38.808,36.867-56.271,45.599C1167.353,774.341,1076.155,773.37,1026.675,750.086z M1670.883,637.543
		c211.502-50.45,390.018-228.966,428.825-429.796c20.374-108.662-2.911-335.687-31.046-292.998
		c-7.762,12.613-11.642,10.672-28.136-9.702c-38.808-48.51-75.675-135.827-93.139-221.204
		c-14.553-74.705-19.404-86.347-34.927-81.496c-21.344,4.851-23.285-19.404-2.911-36.867c7.761-6.791,14.553-18.434,14.553-25.225
		c0-14.553-50.45-42.689-108.662-61.122c-33.957-11.642-38.808-9.702-82.466,19.404c-60.152,40.748-127.095,97.019-248.37,210.532
		C1366.243-181.3,1272.134-112.416,1187.727-73.608c-55.301,26.195-71.794,29.106-135.827,25.225l-73.735-2.911l-17.464,48.51
		c-12.612,37.838-16.493,70.824-13.583,146.499c2.911,85.377,7.762,105.751,33.957,163.963
		c28.136,59.182,32.987,65.003,53.361,58.212c11.642-3.881,46.569-9.702,76.645-11.642c47.539-3.881,63.063-0.97,105.751,22.314
		c70.824,38.808,105.751,100.9,105.751,190.158v65.003l41.718,8.732C1429.305,655.007,1602,653.066,1670.883,637.543z"/>
	<path class="st0" d="M1734.916-31.89c-36.867-24.255-95.079-52.39-129.036-64.033c-108.662-35.897-141.648-83.437-97.99-138.738
		c37.838-47.539,162.022-93.139,259.042-93.139c38.808,0,42.688,1.94,57.241,36.867c32.987,78.586,25.225,303.671-9.702,302.7
		C1807.681,11.769,1772.754-8.605,1734.916-31.89z"/>
</g>
<g>
	<g>
		<path class="st1" d="M248.722,210.09c-6.772,0-12.296-2.878-12.313-6.416l-0.162-33.08c-0.016-3.309-5.179-6-11.509-6h-20.192
			c-6.775,0-12.286-2.881-12.286-6.423V11.44c0-3.541,5.512-6.422,12.286-6.422h375.853c6.775,0,12.287,2.881,12.287,6.422v146.731
			c-0.002,3.541-5.513,6.422-12.287,6.422H395.021c-2.156,0-4.262,0.315-6.091,0.911l-133.732,43.602
			C253.225,209.75,250.985,210.09,248.722,210.09z"/>
	</g>
</g>
<g>
	<path class="st2" d="M226.144,59.17h-8.667V25.845h8.667V59.17z"/>
	<path class="st2" d="M244.576,25.845l-8.13,14.648h-5.127l5.737-14.648H244.576z"/>
	<path class="st2" d="M288.058,59.17h-8.032V47.98c0-1.95-0.204-3.283-0.61-3.999c-0.603-1.056-1.506-1.584-2.71-1.584
		c-1.335,0-2.36,0.577-3.076,1.731c-0.505,0.812-0.757,2.097-0.757,3.852V59.17h-8.032V47.98c0-1.95-0.163-3.218-0.488-3.803
		c-0.651-1.17-1.652-1.755-3.003-1.755c-1.253,0-2.23,0.504-2.93,1.511c-0.261,0.358-0.448,0.85-0.562,1.475
		c-0.114,0.626-0.171,1.483-0.171,2.572V59.17h-8.032V36.514h8.032v2.783c0.945-0.911,1.809-1.579,2.592-2.002
		c1.418-0.765,3-1.147,4.744-1.147c2.233,0,4.092,0.578,5.576,1.733c0.75,0.586,1.467,1.416,2.152,2.49
		c0.62-1.009,1.312-1.807,2.079-2.393c1.614-1.237,3.456-1.855,5.526-1.855c1.695,0,3.203,0.407,4.524,1.221
		c1.418,0.896,2.347,2.108,2.787,3.638c0.261,0.928,0.392,2.083,0.392,3.467V59.17z"/>
	<path class="st2" d="M331.222,59.17h-8.032V47.712c0-1.999-0.227-3.324-0.68-3.974c-0.663-0.959-1.658-1.438-2.984-1.438
		c-1.213,0-2.232,0.413-3.057,1.239c-0.744,0.745-1.116,1.911-1.116,3.498V59.17h-8.032V36.514h8.032v2.856
		c0.926-1.074,1.779-1.831,2.56-2.271c1.268-0.716,2.852-1.074,4.754-1.074c2.438,0,4.42,0.659,5.947,1.978
		c1.739,1.498,2.608,3.744,2.608,6.738V59.17z"/>
	<path class="st2" d="M363.058,47.842c0,3.142-1.034,5.835-3.101,8.081c-2.507,2.734-6.015,4.102-10.522,4.102
		c-4.525,0-8.041-1.367-10.547-4.102c-2.067-2.246-3.101-5.005-3.101-8.276c0-2.946,1.041-5.558,3.125-7.837
		c2.522-2.75,6.111-4.126,10.767-4.126c4.28,0,7.698,1.375,10.254,4.126C362.016,42.056,363.058,44.733,363.058,47.842z
		 M354.708,47.842c0-1.472-0.515-2.718-1.543-3.74c-1.029-1.022-2.272-1.533-3.73-1.533c-1.652,0-2.997,0.622-4.034,1.864
		c-0.843,0.998-1.264,2.134-1.264,3.409c0,1.292,0.421,2.437,1.264,3.434c1.037,1.243,2.382,1.864,4.034,1.864
		c1.474,0,2.722-0.511,3.742-1.533S354.708,49.33,354.708,47.842z"/>
	<path class="st2" d="M381.148,43.081h-4.565V59.17h-8.032V43.081h-2.637v-6.567h2.637v-6.812h8.032v6.812h4.565V43.081z"/>
	<path class="st2" d="M415.035,58.682c-1.66,0.83-3.402,1.245-5.225,1.245c-4.135,0-7.414-1.399-9.839-4.199
		c-1.953-2.262-2.93-4.883-2.93-7.861c0-2.995,0.977-5.615,2.93-7.861c2.425-2.799,5.704-4.199,9.839-4.199
		c1.855,0,3.597,0.423,5.225,1.27v6.812c-1.412-0.993-2.793-1.489-4.14-1.489c-1.592,0-2.906,0.513-3.945,1.538
		s-1.559,2.336-1.559,3.931c0,1.595,0.52,2.905,1.559,3.931s2.354,1.538,3.945,1.538c1.331,0,2.711-0.488,4.14-1.465V58.682z"/>
	<path class="st2" d="M436.593,43.887c-1.12-0.537-2.257-0.806-3.409-0.806c-2.629,0-4.334,1.083-5.112,3.247
		c-0.292,0.781-0.438,1.831-0.438,3.149v9.692h-8.032V36.514h8.032v3.711c0.844-1.318,1.753-2.271,2.728-2.856
		c1.314-0.781,2.872-1.172,4.674-1.172c0.422,0,0.941,0.024,1.559,0.073V43.887z"/>
	<path class="st2" d="M467.843,36.514l-18.188,33.984h-8.984l7.69-14.429l-10.938-19.556h9.302l6.055,11.621l5.884-11.621H467.843z"
		/>
	<path class="st2" d="M479.073,27.81c0,1.267-0.435,2.334-1.303,3.202s-1.936,1.302-3.201,1.302c-1.251,0-2.31-0.438-3.178-1.314
		c-0.868-0.877-1.303-1.94-1.303-3.19c0-1.25,0.435-2.309,1.303-3.177s1.927-1.303,3.178-1.303c1.249,0,2.312,0.435,3.189,1.303
		C478.635,25.501,479.073,26.561,479.073,27.81z M478.585,59.17h-8.032V36.514h8.032V59.17z"/>
	<path class="st2" d="M507.955,59.17h-8.032V47.712c0-1.999-0.227-3.324-0.68-3.974c-0.663-0.959-1.658-1.438-2.984-1.438
		c-1.213,0-2.232,0.413-3.057,1.239c-0.744,0.745-1.116,1.911-1.116,3.498V59.17h-8.032V36.514h8.032v2.856
		c0.926-1.074,1.779-1.831,2.56-2.271c1.268-0.716,2.852-1.074,4.754-1.074c2.438,0,4.42,0.659,5.947,1.978
		c1.739,1.498,2.608,3.744,2.608,6.738V59.17z"/>
	<path class="st2" d="M538.79,57.607c0,1.985-0.139,3.589-0.415,4.81c-0.439,1.953-1.579,3.703-3.418,5.249
		c-2.328,1.953-5.42,2.93-9.277,2.93c-4.037,0-7.251-1.066-9.644-3.198c-1.596-1.416-2.612-2.897-3.052-4.443
		c-0.049-0.163-0.114-0.505-0.195-1.025h8.984c0.26,0.741,0.61,1.272,1.05,1.595c0.716,0.532,1.627,0.798,2.734,0.798
		c1.855,0,3.279-0.657,4.272-1.972c0.618-0.827,0.928-2.012,0.928-3.553v-2.142c-0.959,0.879-1.764,1.498-2.414,1.855
		c-1.349,0.749-2.941,1.123-4.778,1.123c-2.309,0-4.373-0.594-6.193-1.782c-1.869-1.221-3.21-2.889-4.022-5.005
		c-0.553-1.432-0.829-2.986-0.829-4.663c0-3.711,1.179-6.73,3.535-9.058c2.194-2.165,4.836-3.247,7.924-3.247
		c1.642,0,3.104,0.334,4.389,1.001c0.764,0.407,1.561,1.074,2.39,2.002v-2.368h8.032V57.607z M531.148,47.769
		c0-1.448-0.494-2.693-1.482-3.735c-0.988-1.042-2.203-1.562-3.645-1.562c-1.604,0-2.916,0.619-3.937,1.855
		c-0.811,0.993-1.215,2.141-1.215,3.442c0,1.449,0.498,2.69,1.494,3.723c0.996,1.034,2.215,1.55,3.657,1.55
		c1.425,0,2.636-0.517,3.633-1.55C530.65,50.458,531.148,49.217,531.148,47.769z"/>
	<path class="st2" d="M550.387,56.253c0,0.801-0.29,1.495-0.87,2.083c-0.581,0.588-1.287,0.882-2.121,0.882
		c-0.816,0-1.516-0.294-2.096-0.882s-0.87-1.283-0.87-2.083c0-0.85,0.286-1.581,0.858-2.194c0.571-0.613,1.274-0.919,2.107-0.919
		c0.834,0,1.54,0.307,2.121,0.919C550.097,54.672,550.387,55.403,550.387,56.253z M549.947,52.188h-5.273V35.439h5.273V52.188z"/>
	<path class="st2" d="M562.838,56.253c0,0.801-0.29,1.495-0.87,2.083c-0.581,0.588-1.287,0.882-2.121,0.882
		c-0.816,0-1.516-0.294-2.096-0.882s-0.87-1.283-0.87-2.083c0-0.85,0.286-1.581,0.858-2.194c0.571-0.613,1.274-0.919,2.107-0.919
		c0.834,0,1.54,0.307,2.121,0.919C562.548,54.672,562.838,55.403,562.838,56.253z M562.398,52.188h-5.273V35.439h5.273V52.188z"/>
	<path class="st2" d="M575.289,56.253c0,0.801-0.29,1.495-0.87,2.083c-0.581,0.588-1.287,0.882-2.121,0.882
		c-0.816,0-1.516-0.294-2.096-0.882s-0.87-1.283-0.87-2.083c0-0.85,0.286-1.581,0.858-2.194c0.571-0.613,1.274-0.919,2.107-0.919
		c0.834,0,1.54,0.307,2.121,0.919C574.999,54.672,575.289,55.403,575.289,56.253z M574.85,52.188h-5.273V35.439h5.273V52.188z"/>
</g>
<g>
	<path class="st2" d="M211.674,111.403c0,0.734-0.252,1.354-0.755,1.857c-0.504,0.503-1.123,0.755-1.857,0.755
		c-0.725,0-1.34-0.254-1.843-0.762c-0.503-0.509-0.755-1.125-0.755-1.85c0-0.725,0.252-1.339,0.755-1.843
		c0.503-0.503,1.118-0.755,1.843-0.755c0.725,0,1.341,0.252,1.85,0.755C211.419,110.064,211.674,110.678,211.674,111.403z
		 M211.391,136.162h-4.659v-19.711h4.659V136.162z"/>
	<path class="st2" d="M228.567,124.792c0,2.445-1.156,4.069-3.469,4.871c-0.963,0.331-2.138,0.496-3.526,0.496
		c-2.728,0-4.687-0.67-5.876-2.011c-0.755-0.85-1.133-1.968-1.133-3.356v-8.34h4.659v7.448c0,0.821,0.197,1.425,0.591,1.812
		c0.422,0.416,1.009,0.623,1.759,0.623c0.741,0,1.323-0.208,1.745-0.623c0.394-0.387,0.591-0.991,0.591-1.812v-7.448h4.659V124.792z
		"/>
	<path class="st2" d="M242.416,125.16c0,1.397-0.5,2.54-1.501,3.427c-1.124,1-2.705,1.501-4.744,1.501
		c-1.803,0-3.554-0.505-5.253-1.515l1.685-3.285c1.327,0.869,2.561,1.303,3.7,1.303c0.97,0,1.455-0.335,1.455-1.005
		c0-0.349-0.169-0.618-0.508-0.807c-0.217-0.123-0.707-0.269-1.469-0.439c-0.857-0.188-1.417-0.334-1.681-0.438
		c-0.941-0.367-1.577-0.942-1.907-1.724c-0.179-0.424-0.269-0.933-0.269-1.527c0-1.15,0.392-2.154,1.175-3.011
		c1.01-1.103,2.568-1.654,4.673-1.654c1.463,0,2.884,0.283,4.262,0.85l-1.572,3.002c-0.866-0.453-1.693-0.68-2.483-0.68
		c-0.932,0-1.397,0.324-1.397,0.971c0,0.295,0.188,0.533,0.565,0.714c0.169,0.085,0.668,0.212,1.498,0.382
		c1.214,0.255,2.109,0.661,2.684,1.218C242.053,123.14,242.416,124.046,242.416,125.16z"/>
	<path class="st2" d="M252.625,120.26h-2.648v9.332h-4.659v-9.332h-1.529v-3.809h1.529V112.5h4.659v3.951h2.648V120.26z"/>
	<path class="st2" d="M277.703,123.043c0,2.244-0.778,4.036-2.333,5.375c-1.235,1.066-2.654,1.599-4.256,1.599
		c-0.934,0-1.81-0.198-2.63-0.595c-0.471-0.227-0.957-0.6-1.457-1.119v7.859h-4.659v-19.711h4.659v1.473
		c0.415-0.547,0.862-0.954,1.343-1.218c0.792-0.444,1.692-0.666,2.701-0.666c1.631,0,3.083,0.561,4.355,1.683
		C276.944,119.063,277.703,120.836,277.703,123.043z M272.86,123.028c0-0.747-0.235-1.396-0.705-1.944
		c-0.592-0.7-1.353-1.05-2.283-1.05c-0.836,0-1.543,0.289-2.121,0.866c-0.578,0.577-0.867,1.287-0.867,2.128
		c0,0.833,0.291,1.541,0.874,2.122c0.583,0.582,1.288,0.873,2.114,0.873c0.93,0,1.687-0.35,2.269-1.05
		C272.62,124.405,272.86,123.757,272.86,123.028z"/>
	<path class="st2" d="M295.162,129.592h-4.659v-1.458c-0.443,0.557-0.891,0.963-1.343,1.218c-0.792,0.444-1.692,0.666-2.701,0.666
		c-1.631,0-3.083-0.561-4.355-1.683c-1.518-1.339-2.277-3.112-2.277-5.319c0-2.245,0.778-4.037,2.333-5.375
		c1.235-1.065,2.654-1.599,4.256-1.599c0.934,0,1.81,0.193,2.63,0.581c0.471,0.227,0.957,0.6,1.457,1.119v-1.289h4.659V129.592z
		 M290.645,123.021c0-0.827-0.292-1.529-0.874-2.107c-0.583-0.578-1.287-0.867-2.114-0.867c-0.921,0-1.677,0.348-2.269,1.043
		c-0.479,0.564-0.719,1.207-0.719,1.931s0.24,1.367,0.719,1.931c0.583,0.695,1.339,1.043,2.269,1.043
		c0.836,0,1.543-0.287,2.121-0.859C290.356,124.562,290.645,123.858,290.645,123.021z"/>
	<path class="st2" d="M313.047,128.686c0,1.152-0.081,2.082-0.241,2.79c-0.255,1.133-0.916,2.147-1.982,3.044
		c-1.35,1.133-3.144,1.699-5.381,1.699c-2.341,0-4.205-0.618-5.593-1.855c-0.925-0.821-1.515-1.68-1.77-2.577
		c-0.028-0.094-0.066-0.292-0.113-0.595h5.211c0.151,0.43,0.354,0.738,0.609,0.925c0.415,0.308,0.943,0.462,1.586,0.462
		c1.075,0,1.901-0.381,2.478-1.144c0.358-0.48,0.538-1.167,0.538-2.061v-1.242c-0.557,0.51-1.023,0.869-1.4,1.076
		c-0.782,0.434-1.706,0.651-2.771,0.651c-1.339,0-2.535-0.345-3.592-1.034c-1.084-0.708-1.862-1.676-2.333-2.903
		c-0.321-0.831-0.481-1.732-0.481-2.705c0-2.152,0.684-3.903,2.051-5.253c1.273-1.255,2.804-1.883,4.596-1.883
		c0.952,0,1.8,0.193,2.545,0.581c0.442,0.236,0.904,0.623,1.386,1.161v-1.374h4.659V128.686z M308.614,122.979
		c0-0.84-0.287-1.562-0.859-2.167c-0.573-0.604-1.278-0.906-2.114-0.906c-0.93,0-1.691,0.359-2.283,1.076
		c-0.47,0.576-0.704,1.241-0.704,1.997c0,0.84,0.288,1.56,0.866,2.16c0.578,0.599,1.285,0.899,2.121,0.899
		c0.826,0,1.529-0.3,2.106-0.899C308.325,124.539,308.614,123.819,308.614,122.979z"/>
	<path class="st2" d="M330.166,123.885h-9.756c0,1.973,0.948,2.959,2.845,2.959c0.967,0,1.708-0.416,2.225-1.246h4.503
		c-0.358,1.186-0.888,2.104-1.586,2.752c-1.265,1.177-2.959,1.765-5.084,1.765c-2.699,0-4.729-0.821-6.088-2.464
		c-1.02-1.227-1.529-2.724-1.529-4.489c0-2.096,0.637-3.8,1.911-5.112s3.073-1.968,5.396-1.968c2.859,0,4.903,1.041,6.131,3.121
		c0.689,1.172,1.033,2.534,1.033,4.085V123.885z M325.819,121.237c-0.329-1.482-1.207-2.223-2.634-2.223
		c-0.789,0-1.428,0.236-1.916,0.708c-0.385,0.375-0.629,0.881-0.732,1.516H325.819z"/>
	<path class="st3" d="M352.725,124.191l-1.248,3.059h-0.563v2.341h-3.452v-2.341h-6.597v-2.786l6.597-10.835h3.452v10.562H352.725z
		 M347.461,124.191v-4.871l-3.127,4.871H347.461z"/>
	<path class="st3" d="M366.892,121.372c0,2.518-0.5,4.552-1.501,6.101c-1.059,1.641-2.503,2.461-4.335,2.461
		s-3.276-0.82-4.334-2.461c-1.002-1.549-1.502-3.583-1.502-6.101c0-2.29,0.5-4.198,1.502-5.725c1.08-1.652,2.525-2.478,4.334-2.478
		c1.81,0,3.254,0.826,4.335,2.478C366.392,117.173,366.892,119.082,366.892,121.372z M363.132,121.405
		c0-1.303-0.177-2.384-0.531-3.242c-0.39-0.915-0.904-1.372-1.545-1.372s-1.155,0.458-1.544,1.372
		c-0.354,0.858-0.532,1.938-0.532,3.242c0,3.225,0.692,4.837,2.076,4.837C362.44,126.242,363.132,124.63,363.132,121.405z"/>
	<path class="st3" d="M381.777,124.191l-1.248,3.059h-0.563v2.341h-3.452v-2.341h-6.597v-2.786l6.597-10.835h3.452v10.562H381.777z
		 M376.514,124.191v-4.871l-3.127,4.871H376.514z"/>
	<path class="st2" d="M407.164,128.686c0,1.152-0.081,2.082-0.241,2.79c-0.255,1.133-0.916,2.147-1.982,3.044
		c-1.35,1.133-3.144,1.699-5.381,1.699c-2.341,0-4.206-0.618-5.593-1.855c-0.926-0.821-1.516-1.68-1.771-2.577
		c-0.028-0.094-0.066-0.292-0.113-0.595h5.211c0.151,0.43,0.354,0.738,0.608,0.925c0.416,0.308,0.944,0.462,1.586,0.462
		c1.076,0,1.902-0.381,2.479-1.144c0.358-0.48,0.538-1.167,0.538-2.061v-1.242c-0.557,0.51-1.023,0.869-1.4,1.076
		c-0.782,0.434-1.706,0.651-2.771,0.651c-1.339,0-2.536-0.345-3.592-1.034c-1.084-0.708-1.862-1.676-2.333-2.903
		c-0.32-0.831-0.48-1.732-0.48-2.705c0-2.152,0.683-3.903,2.05-5.253c1.272-1.255,2.805-1.883,4.596-1.883
		c0.952,0,1.801,0.193,2.546,0.581c0.442,0.236,0.904,0.623,1.386,1.161v-1.374h4.659V128.686z M402.731,122.979
		c0-0.84-0.287-1.562-0.859-2.167c-0.573-0.604-1.278-0.906-2.114-0.906c-0.93,0-1.691,0.359-2.283,1.076
		c-0.47,0.576-0.705,1.241-0.705,1.997c0,0.84,0.289,1.56,0.867,2.16c0.578,0.599,1.285,0.899,2.121,0.899
		c0.826,0,1.529-0.3,2.106-0.899C402.442,124.539,402.731,123.819,402.731,122.979z"/>
	<path class="st2" d="M425.629,123.021c0,1.822-0.6,3.384-1.799,4.687c-1.453,1.586-3.487,2.379-6.103,2.379
		c-2.624,0-4.663-0.793-6.117-2.379c-1.199-1.303-1.798-2.903-1.798-4.8c0-1.708,0.604-3.224,1.812-4.545
		c1.463-1.595,3.544-2.393,6.244-2.393c2.482,0,4.465,0.798,5.947,2.393C425.024,119.666,425.629,121.218,425.629,123.021z
		 M420.786,123.021c0-0.854-0.299-1.577-0.896-2.169s-1.317-0.889-2.163-0.889c-0.958,0-1.738,0.36-2.34,1.081
		c-0.488,0.579-0.733,1.238-0.733,1.978c0,0.749,0.245,1.413,0.733,1.992c0.602,0.721,1.382,1.081,2.34,1.081
		c0.854,0,1.578-0.296,2.171-0.889C420.49,124.612,420.786,123.885,420.786,123.021z"/>
	<path class="st2" d="M436.122,120.26h-2.647v9.332h-4.659v-9.332h-1.529v-3.809h1.529V112.5h4.659v3.951h2.647V120.26z"/>
	<path class="st2" d="M450.793,111.403c0,0.734-0.252,1.354-0.756,1.857c-0.503,0.503-1.122,0.755-1.856,0.755
		c-0.726,0-1.34-0.254-1.844-0.762c-0.503-0.509-0.755-1.125-0.755-1.85c0-0.725,0.252-1.339,0.755-1.843
		c0.504-0.503,1.118-0.755,1.844-0.755c0.725,0,1.341,0.252,1.85,0.755C450.539,110.064,450.793,110.678,450.793,111.403z
		 M450.51,129.592h-4.658v-13.141h4.658V129.592z"/>
	<path class="st2" d="M467.545,129.592h-4.659v-6.646c0-1.159-0.132-1.927-0.395-2.304c-0.384-0.556-0.961-0.834-1.73-0.834
		c-0.703,0-1.295,0.24-1.773,0.718c-0.432,0.432-0.647,1.108-0.647,2.029v7.038h-4.658v-13.141h4.658v1.657
		c0.538-0.623,1.032-1.062,1.485-1.317c0.734-0.416,1.654-0.623,2.757-0.623c1.414,0,2.563,0.382,3.449,1.147
		c1.009,0.869,1.514,2.171,1.514,3.908V129.592z"/>
	<path class="st2" d="M486.591,120.26h-2.647v9.332h-4.659v-9.332h-1.529v-3.809h1.529V112.5h4.659v3.951h2.647V120.26z"/>
	<path class="st2" d="M502.168,129.592h-4.659v-6.646c0-1.168-0.132-1.941-0.395-2.318c-0.384-0.556-0.961-0.834-1.73-0.834
		c-0.713,0-1.304,0.24-1.773,0.718c-0.432,0.442-0.647,1.123-0.647,2.043v7.038h-4.658v-21.269h4.658v9.785
		c0.538-0.623,1.032-1.062,1.485-1.317c0.744-0.425,1.663-0.637,2.757-0.637c1.395,0,2.545,0.387,3.449,1.161
		c1.009,0.869,1.514,2.171,1.514,3.908V129.592z"/>
	<path class="st2" d="M519.287,123.885h-9.756c0,1.973,0.948,2.959,2.845,2.959c0.967,0,1.708-0.416,2.225-1.246h4.503
		c-0.358,1.186-0.888,2.104-1.586,2.752c-1.265,1.177-2.959,1.765-5.084,1.765c-2.699,0-4.729-0.821-6.088-2.464
		c-1.02-1.227-1.529-2.724-1.529-4.489c0-2.096,0.637-3.8,1.911-5.112s3.073-1.968,5.396-1.968c2.859,0,4.903,1.041,6.131,3.121
		c0.689,1.172,1.033,2.534,1.033,4.085V123.885z M514.94,121.237c-0.329-1.482-1.207-2.223-2.634-2.223
		c-0.789,0-1.428,0.236-1.916,0.708c-0.385,0.375-0.629,0.881-0.732,1.516H514.94z"/>
	<path class="st2" d="M543.912,123.885h-9.756c0,1.973,0.948,2.959,2.845,2.959c0.967,0,1.708-0.416,2.225-1.246h4.503
		c-0.358,1.186-0.888,2.104-1.586,2.752c-1.265,1.177-2.959,1.765-5.084,1.765c-2.699,0-4.729-0.821-6.088-2.464
		c-1.02-1.227-1.529-2.724-1.529-4.489c0-2.096,0.637-3.8,1.911-5.112s3.073-1.968,5.396-1.968c2.859,0,4.903,1.041,6.131,3.121
		c0.689,1.172,1.033,2.534,1.033,4.085V123.885z M539.565,121.237c-0.329-1.482-1.207-2.223-2.634-2.223
		c-0.789,0-1.428,0.236-1.916,0.708c-0.385,0.375-0.629,0.881-0.732,1.516H539.565z"/>
	<path class="st2" d="M562.618,116.451l-10.55,19.711h-5.211l4.461-8.369l-6.344-11.342h5.395l3.512,6.74l3.413-6.74H562.618z"/>
	<path class="st2" d="M578.151,123.885h-9.756c0,1.973,0.948,2.959,2.845,2.959c0.967,0,1.708-0.416,2.225-1.246h4.503
		c-0.358,1.186-0.888,2.104-1.586,2.752c-1.265,1.177-2.959,1.765-5.084,1.765c-2.699,0-4.729-0.821-6.088-2.464
		c-1.02-1.227-1.529-2.724-1.529-4.489c0-2.096,0.637-3.8,1.911-5.112s3.073-1.968,5.396-1.968c2.859,0,4.903,1.041,6.131,3.121
		c0.689,1.172,1.033,2.534,1.033,4.085V123.885z M573.805,121.237c-0.329-1.482-1.207-2.223-2.634-2.223
		c-0.789,0-1.428,0.236-1.916,0.708c-0.385,0.375-0.629,0.881-0.732,1.516H573.805z"/>
</g>
</svg>
