<?xml version="1.0" encoding="utf-8"?>
<!-- Generator: Adobe Illustrator 26.0.1, SVG Export Plug-In . SVG Version: 6.00 Build 0)  -->
<svg version="1.1" id="Слой_1" xmlns="http://www.w3.org/2000/svg" xmlns:xlink="http://www.w3.org/1999/xlink" x="0px"
	y="0px" width="400px" height="450px" viewBox="0 0 400 450" style="enable-background:new 0 0 400 450;"
	xml:space="preserve">
	<style type="text/css">
		.st0 {
			opacity: 0.2;
		}

		.st1 {
			fill: #231F20;
		}

		.st2 {
			fill: #51556E;
		}

		.st3 {
			fill: #9B782D;
		}

		.st4 {
			fill: #E8AB1D;
		}

		.st5 {
			fill: #3D415A;
		}

		.st6 {
			fill: #61451A;
		}

		.st7 {
			fill: #876419;
			stroke: #61451B;
			stroke-width: 0.75;
			stroke-miterlimit: 10;
		}

		.st8 {
			fill: #dbb151;
		}
	</style>
	<g id="Layer_1">
		<g>
			<g class="st0">
				<path class="st1" d="M377.47,152.348c-11.536,0-20.879-9.343-20.879-20.879v-31.318c0-11.536,9.343-20.879,20.879-20.879l0,0
				c11.536,0,20.879,9.343,20.879,20.879v31.318C398.349,143.004,389.005,152.348,377.47,152.348L377.47,152.348z" />
			</g>
			<g class="st0">
				<path class="st1" d="M377.47,246.302c-11.536,0-20.879-9.343-20.879-20.879v-31.318c0-11.536,9.343-20.879,20.879-20.879l0,0
				c11.536,0,20.879,9.343,20.879,20.879v31.318C398.349,236.959,389.005,246.302,377.47,246.302L377.47,246.302z" />
			</g>
			<g class="st0">
				<path class="st1" d="M377.47,340.257c-11.536,0-20.879-9.343-20.879-20.879V288.06c0-11.536,9.343-20.879,20.879-20.879l0,0
				c11.536,0,20.879,9.343,20.879,20.879v31.318C398.349,330.913,389.005,340.257,377.47,340.257L377.47,340.257z" />
			</g>
			<g>
				<path class="st2" d="M377.47,131.469c-11.536,0-20.879-9.343-20.879-20.879V79.272c0-11.536,9.343-20.879,20.879-20.879l0,0
				c11.536,0,20.879,9.343,20.879,20.879v31.318C398.349,122.126,389.005,131.469,377.47,131.469L377.47,131.469z" />
			</g>
			<g>
				<path class="st3" d="M377.47,225.423c-11.536,0-20.879-9.343-20.879-20.879v-31.318c0-11.536,9.343-20.879,20.879-20.879l0,0
				c11.536,0,20.879,9.343,20.879,20.879v31.318C398.349,216.08,389.005,225.423,377.47,225.423L377.47,225.423z" />
			</g>
			<g>
				<path class="st4" d="M377.47,319.378c-11.536,0-20.879-9.343-20.879-20.879v-31.318c0-11.536,9.343-20.879,20.879-20.879l0,0
				c11.536,0,20.879,9.343,20.879,20.879v31.318C398.349,310.035,389.005,319.378,377.47,319.378L377.47,319.378z" />
			</g>
			<g class="st0">
				<path class="st1" d="M377.47,402.893c0,23.061-18.697,41.758-41.758,41.758H85.167c-23.061,0-41.758-18.697-41.758-41.758V68.832
				c0-23.061,18.697-41.758,41.758-41.758h250.545c23.061,0,41.758,18.697,41.758,41.758V402.893z" />
			</g>
			<g>
				<path class="st5" d="M367.03,382.014c0,23.061-18.697,41.758-41.758,41.758H74.727c-23.061,0-41.758-18.697-41.758-41.758V47.954
				c0-23.061,18.697-41.758,41.758-41.758h250.545c23.061,0,41.758,18.697,41.758,41.758V382.014z" />
			</g>
			<g>
				<rect x="95.606" y="6.196" class="st6" width="31.318" height="417.576" />
			</g>
			<g class="st0">
				<g>
					<path class="st1" d="M74.727,110.59c0,11.536-9.343,20.879-20.879,20.879H22.53c-11.536,0-20.879-9.343-20.879-20.879l0,0
					c0-11.536,9.343-20.879,20.879-20.879h31.318C65.384,89.711,74.727,99.055,74.727,110.59L74.727,110.59z" />
				</g>
				<g>
					<path class="st1" d="M74.727,194.105c0,11.536-9.343,20.879-20.879,20.879H22.53c-11.536,0-20.879-9.343-20.879-20.879l0,0
					c0-11.536,9.343-20.879,20.879-20.879h31.318C65.384,173.226,74.727,182.57,74.727,194.105L74.727,194.105z" />
				</g>
				<g>
					<path class="st1" d="M74.727,277.62c0,11.536-9.343,20.879-20.879,20.879H22.53c-11.536,0-20.879-9.343-20.879-20.879l0,0
					c0-11.536,9.343-20.879,20.879-20.879h31.318C65.384,256.742,74.727,266.085,74.727,277.62L74.727,277.62z" />
				</g>
				<g>
					<path class="st1" d="M74.727,361.135c0,11.536-9.343,20.879-20.879,20.879H22.53c-11.536,0-20.879-9.343-20.879-20.879l0,0
					c0-11.536,9.343-20.879,20.879-20.879h31.318C65.384,340.257,74.727,349.6,74.727,361.135L74.727,361.135z" />
				</g>
			</g>
			<g>
				<g>
					<path class="st7" d="M74.727,89.711c0,11.536-9.343,20.879-20.879,20.879H22.53c-11.536,0-20.879-9.343-20.879-20.879l0,0
					c0-11.536,9.343-20.879,20.879-20.879h31.318C65.384,68.832,74.727,78.176,74.727,89.711L74.727,89.711z" />
				</g>
				<g>
					<path class="st7" d="M74.727,173.226c0,11.536-9.343,20.879-20.879,20.879H22.53c-11.536,0-20.879-9.343-20.879-20.879l0,0
					c0-11.536,9.343-20.879,20.879-20.879h31.318C65.384,152.348,74.727,161.691,74.727,173.226L74.727,173.226z" />
				</g>
				<g>
					<path class="st7" d="M74.727,256.742c0,11.536-9.343,20.879-20.879,20.879H22.53c-11.536,0-20.879-9.343-20.879-20.879l0,0
					c0-11.536,9.343-20.879,20.879-20.879h31.318C65.384,235.863,74.727,245.206,74.727,256.742L74.727,256.742z" />
				</g>
				<g>
					<path class="st7" d="M74.727,340.257c0,11.536-9.343,20.879-20.879,20.879H22.53c-11.536,0-20.879-9.343-20.879-20.879l0,0
					c0-11.536,9.343-20.879,20.879-20.879h31.318C65.384,319.378,74.727,328.721,74.727,340.257L74.727,340.257z" />
				</g>
			</g>
			<g>
				<circle class="st8" cx="241.758" cy="162.787" r="41.758" />
			</g>
			<g>
				<path class="st8" d="M304.394,290.774c0,31.423-28.04,28.447-62.636,28.447s-62.636,2.975-62.636-28.447
				s28.04-75.863,62.636-75.863S304.394,259.341,304.394,290.774z" />
			</g>
		</g>
	</g>
	<g id="Layer_2">
	</g>
</svg>